HIERARCHY
ROOT hip
{
  OFFSET 0.0 0.0 0.0
  CHANNELS 6 Xposition Yposition Zposition Zrotation Yrotation Xrotation
  JOINT abdomen
  {
    OFFSET 0.0 20.6881 -0.73152
    CHANNELS 3 Zrotation Xrotation Yrotation
    JOINT chest
    {
      OFFSET 0.0 11.7043 -0.48768
      CHANNELS 3 Zrotation Xrotation Yrotation
      JOINT neck
      {
        OFFSET 0.0 22.1894 -2.19456
        CHANNELS 3 Zrotation Xrotation Yrotation
        JOINT head
        {
          OFFSET -0.24384 7.07133 1.2192
          CHANNELS 3 Zrotation Xrotation Yrotation
          JOINT leftEye
          {
            OFFSET 4.14528 8.04674 8.04672
            CHANNELS 3 Zrotation Xrotation Yrotation
            End Site
            {
              OFFSET 1.0 0.0 0.0
            }
          }
          JOINT rightEye
          {
            OFFSET -3.6576 8.04674 8.04672
            CHANNELS 3 Zrotation Xrotation Yrotation
            End Site
            {
              OFFSET 1.0 0.0 0.0
            }
          }
        }
      }
      JOINT rCollar
      {
        OFFSET -2.68224 19.2634 -4.8768
        CHANNELS 3 Zrotation Xrotation Yrotation
        JOINT rShldr
        {
          OFFSET -8.77824 -1.95073 1.46304
          CHANNELS 3 Zrotation Xrotation Yrotation
          JOINT rForeArm
          {
            OFFSET -28.1742 -1.7115 0.48768
            CHANNELS 3 Zrotation Xrotation Yrotation
            JOINT rHand
            {
              OFFSET -22.5879 0.773209 7.07136
              CHANNELS 3 Zrotation Xrotation Yrotation
              JOINT rThumb1
              {
                OFFSET -1.2192 -0.487915 3.41376
                CHANNELS 3 Zrotation Xrotation Yrotation
                JOINT rThumb2
                {
                  OFFSET -3.37035 -0.52449 3.41376
                  CHANNELS 3 Zrotation Xrotation Yrotation
                  End Site
                  {
                    OFFSET -1.78271 -1.18214 1.43049
                  }
                }
              }
              JOINT rIndex1
              {
                OFFSET -7.75947 0.938293 5.60832
                CHANNELS 3 Zrotation Xrotation Yrotation
                JOINT rIndex2
                {
                  OFFSET -2.54057 -0.884171 1.56538
                  CHANNELS 3 Zrotation Xrotation Yrotation
                  End Site
                  {
                    OFFSET -1.62519 -0.234802 1.16502
                  }
                }
              }
              JOINT rMid1
              {
                OFFSET -8.24714 1.18213 3.41376
                CHANNELS 3 Zrotation Xrotation Yrotation
                JOINT rMid2
                {
                  OFFSET -3.10165 -0.590103 1.0647
                  CHANNELS 3 Zrotation Xrotation Yrotation
                  End Site
                  {
                    OFFSET -2.48547 -0.328903 0.83742
                  }
                }
              }
              JOINT rRing1
              {
                OFFSET -8.82822 0.546677 1.51678
                CHANNELS 3 Zrotation Xrotation Yrotation
                JOINT rRing2
                {
                  OFFSET -2.60934 -0.819778 -0.0198488
                  CHANNELS 3 Zrotation Xrotation Yrotation
                  End Site
                  {
                    OFFSET -2.33842 -0.294052 0.168128
                  }
                }
              }
              JOINT rPinky1
              {
                OFFSET -8.27202 -0.0477905 -0.4584
                CHANNELS 3 Zrotation Xrotation Yrotation
                JOINT rPinky2
                {
                  OFFSET -1.82734 -0.647385 -0.700984
                  CHANNELS 3 Zrotation Xrotation Yrotation
                  End Site
                  {
                    OFFSET -1.69225 -0.51767 -0.607171
                  }
                }
              }
            }
          }
        }
      }
      JOINT lCollar
      {
        OFFSET 2.68224 19.2634 -4.8768
        CHANNELS 3 Zrotation Xrotation Yrotation
        JOINT lShldr
        {
          OFFSET 8.77824 -1.95073 1.46304
          CHANNELS 3 Zrotation Xrotation Yrotation
          JOINT lForeArm
          {
            OFFSET 28.1742 -1.7115 0.48768
            CHANNELS 3 Zrotation Xrotation Yrotation
            JOINT lHand
            {
              OFFSET 22.5879 0.773209 7.07136
              CHANNELS 3 Zrotation Xrotation Yrotation
              JOINT lThumb1
              {
                OFFSET 1.2192 -0.487915 3.41376
                CHANNELS 3 Zrotation Xrotation Yrotation
                JOINT lThumb2
                {
                  OFFSET 3.37035 -0.52449 3.41376
                  CHANNELS 3 Zrotation Xrotation Yrotation
                  End Site
                  {
                    OFFSET 1.78271 -1.18214 1.43049
                  }
                }
              }
              JOINT lIndex1
              {
                OFFSET 7.75947 0.938293 5.60832
                CHANNELS 3 Zrotation Xrotation Yrotation
                JOINT lIndex2
                {
                  OFFSET 2.54057 -0.884171 1.56538
                  CHANNELS 3 Zrotation Xrotation Yrotation
                  End Site
                  {
                    OFFSET 1.62519 -0.234802 1.16502
                  }
                }
              }
              JOINT lMid1
              {
                OFFSET 8.24714 1.18213 3.41376
                CHANNELS 3 Zrotation Xrotation Yrotation
                JOINT lMid2
                {
                  OFFSET 3.10165 -0.590103 1.0647
                  CHANNELS 3 Zrotation Xrotation Yrotation
                  End Site
                  {
                    OFFSET 2.48547 -0.328903 0.83742
                  }
                }
              }
              JOINT lRing1
              {
                OFFSET 8.82822 0.546677 1.51678
                CHANNELS 3 Zrotation Xrotation Yrotation
                JOINT lRing2
                {
                  OFFSET 2.60934 -0.819778 -0.0198488
                  CHANNELS 3 Zrotation Xrotation Yrotation
                  End Site
                  {
                    OFFSET 2.33842 -0.294052 0.168128
                  }
                }
              }
              JOINT lPinky1
              {
                OFFSET 8.27202 -0.0477905 -0.4584
                CHANNELS 3 Zrotation Xrotation Yrotation
                JOINT lPinky2
                {
                  OFFSET 1.82734 -0.647385 -0.700984
                  CHANNELS 3 Zrotation Xrotation Yrotation
                  End Site
                  {
                    OFFSET 1.69225 -0.51767 -0.607171
                  }
                }
              }
            }
          }
        }
      }
    }
  }
  JOINT rButtock
  {
    OFFSET -8.77824 4.35084 1.2192
    CHANNELS 3 Zrotation Xrotation Yrotation
    JOINT rThigh
    {
      OFFSET 0.0 -1.70687 -2.19456
      CHANNELS 3 Zrotation Xrotation Yrotation
      JOINT rShin
      {
        OFFSET 0.0 -36.8199 0.73152
        CHANNELS 3 Zrotation Xrotation Yrotation
        JOINT rFoot
        {
          OFFSET 0.73152 -45.1104 -5.12064
          CHANNELS 3 Zrotation Xrotation Yrotation
          End Site
          {
            OFFSET -1.1221 -3.69964 12.103
          }
        }
      }
    }
  }
  JOINT lButtock
  {
    OFFSET 8.77824 4.35084 1.2192
    CHANNELS 3 Zrotation Xrotation Yrotation
    JOINT lThigh
    {
      OFFSET 0.0 -1.70687 -2.19456
      CHANNELS 3 Zrotation Xrotation Yrotation
      JOINT lShin
      {
        OFFSET 0.0 -36.8199 0.73152
        CHANNELS 3 Zrotation Xrotation Yrotation
        JOINT lFoot
        {
          OFFSET -0.73152 -45.1104 -5.12064
          CHANNELS 3 Zrotation Xrotation Yrotation
          End Site
          {
            OFFSET 1.1221 -3.69964 12.103
          }
        }
      }
    }
  }
}
MOTION
Frames: 5
Frame Time: 0.00833333
-60.0912 81.508 -14.90456 -156.405 -50.6518 167.773 21.6738 5.21919 15.4417 -10.1552 -16.7793 3.139 7.67902 4.16801 3.76205 -0.786106 24.4368 1.92095 -0.0 0.0 0.0 -0.0 0.0 0.0 0.0 0.0 0.0 0.0 0.0 0.0 0.0 0.0 0.0 -0.0159771 -3.48807 -0.490928 7.6013e-10 1.09753e-09 -6.09886e-10 1.31936e-09 1.89949e-09 -1.05274e-09 7.60137e-10 1.09754e-09 -6.09901e-10 7.73091 5.47488 0.417314 7.60126e-10 1.09753e-09 -6.09882e-10 2.90554 0.965183 0.102902 7.60133e-10 1.09753e-09 -6.09885e-10 10.2786 0.731801 0.0259123 7.60123e-10 1.09753e-09 -6.09876e-10 2.22167 -0.733487 -0.20892 0.0 0.0 0.0 0.0 0.0 0.0 0.0 0.0 0.0 0.0488302 6.49056 -0.915829 4.11175e-10 -6.61572e-10 -5.54246e-10 7.06582e-10 -1.1449e-09 -9.62913e-10 4.11175e-10 -6.61573e-10 -5.54242e-10 -7.73091 5.47488 -0.417314 4.11176e-10 -6.61573e-10 -5.54249e-10 -2.90554 0.965183 -0.102902 4.11171e-10 -6.61574e-10 -5.54252e-10 -10.2786 0.731801 -0.0259123 4.11181e-10 -6.61574e-10 -5.54255e-10 -2.22167 -0.733487 0.20892 -2.03217e-16 0.0 -3.88251e-19 20.1721 8.14185 12.4805 0.177405 17.5137 1.80336 -1.70564 -6.34449 -1.33428 2.03217e-16 0.0 3.88251e-19 38.1443 -37.6593 18.0521 0.0106162 20.5218 -1.9208 -3.68904 -34.3855 -9.24974
-61.8959 81.3441 -14.958120000000001 -155.112 -49.8427 168.711 20.8465 4.75975 15.6775 -9.66747 -17.2582 3.22919 7.93503 3.2248 3.77689 -0.315648 23.3952 1.99512 -0.0 0.0 0.0 -0.0 0.0 0.0 0.0 0.0 0.0 0.0 0.0 0.0 0.0 0.0 0.0 -0.0150669 -3.50224 -0.492827 1.38535e-09 1.02566e-09 2.44009e-10 2.3943e-09 1.77055e-09 4.2284e-10 1.38536e-09 1.02567e-09 2.4399e-10 7.73091 5.47488 0.417314 1.38535e-09 1.02566e-09 2.44012e-10 2.90554 0.965183 0.102902 1.38536e-09 1.02566e-09 2.44008e-10 10.2786 0.731801 0.0259123 1.38535e-09 1.02566e-09 2.44015e-10 2.22167 -0.733487 -0.20892 0.0 0.0 0.0 0.0 0.0 0.0 0.0 0.0 0.0 0.0642051 7.21115 -1.0189 1.04728e-09 -3.68212e-09 -1.59036e-09 1.80275e-09 -6.37364e-09 -2.75971e-09 1.04728e-09 -3.68212e-09 -1.59036e-09 -7.73091 5.47488 -0.417314 1.04728e-09 -3.68212e-09 -1.59037e-09 -2.90554 0.965183 -0.102902 1.04728e-09 -3.68212e-09 -1.59037e-09 -10.2786 0.731801 -0.0259123 1.04729e-09 -3.68212e-09 -1.59037e-09 -2.22167 -0.733487 0.20892 -2.03217e-16 0.0 -3.88251e-19 20.1916 7.59583 13.4228 0.169914 16.6861 1.73164 -1.72508 -6.28831 -2.46174 2.03217e-16 0.0 3.88251e-19 38.5763 -37.8009 17.8321 0.00458679 21.5388 -1.93558 -5.649 -31.3954 -13.9478
-63.69227 81.2329 -14.918690000000002 -153.936 -49.3303 169.78 19.4275 4.08172 15.9518 -8.60346 -17.9736 3.37782 7.85041 2.31608 3.66902 0.546855 22.1502 1.85133 -0.0 0.0 0.0 -0.0 0.0 0.0 0.0 0.0 0.0 0.0 0.0 0.0 0.0 0.0 0.0 -0.0186618 -4.22628 -0.59475 1.48186e-09 -6.89236e-11 2.23983e-09 2.54801e-09 -1.33148e-10 3.87224e-09 1.48187e-09 -6.89134e-11 2.23981e-09 7.73091 5.47488 0.417314 1.48186e-09 -6.89213e-11 2.23983e-09 2.90554 0.965183 0.102902 1.48187e-09 -6.89211e-11 2.23983e-09 10.2786 0.731801 0.0259123 1.48186e-09 -6.89219e-11 2.23983e-09 2.22167 -0.733487 -0.20892 0.0 0.0 0.0 0.0 0.0 0.0 0.0 0.0 0.0 0.0675239 7.31615 -1.03404 8.17631e-10 -7.60592e-09 -3.02621e-09 1.40177e-09 -1.31607e-08 -5.24418e-09 8.17633e-10 -7.60591e-09 -3.0262e-09 -7.73091 5.47488 -0.417314 8.17633e-10 -7.60591e-09 -3.02621e-09 -2.90554 0.965183 -0.102902 8.17627e-10 -7.60591e-09 -3.02622e-09 -10.2786 0.731801 -0.0259123 8.17636e-10 -7.60591e-09 -3.02622e-09 -2.22167 -0.733487 0.20892 -2.03217e-16 0.0 -3.88251e-19 20.2508 6.87087 15.3923 0.18022 15.9891 1.79423 -1.85617 -7.85066 -5.13717 2.03217e-16 0.0 3.88251e-19 38.7053 -38.8316 17.1016 0.000102102 22.311 -1.98339 -5.0131 -30.0181 -13.6525
-65.46445 81.1225 -14.83876 -153.005 -49.1166 171.067 17.5469 3.2475 16.2406 -7.12518 -18.8695 3.56709 7.51986 1.38049 3.46459 1.6868 20.7654 1.53833 -0.0 0.0 0.0 -0.0 0.0 0.0 0.0 0.0 0.0 0.0 0.0 0.0 0.0 0.0 0.0 -0.031126 -5.44214 -0.766645 1.28077e-09 -1.86744e-09 5.07917e-09 2.18184e-09 -3.25877e-09 8.77965e-09 1.28077e-09 -1.86743e-09 5.07915e-09 7.73091 5.47488 0.417314 1.28077e-09 -1.86744e-09 5.07918e-09 2.90554 0.965183 0.102902 1.28077e-09 -1.86744e-09 5.07917e-09 10.2786 0.731801 0.0259123 1.28076e-09 -1.86744e-09 5.07917e-09 2.22167 -0.733487 -0.20892 0.0 0.0 0.0 0.0 0.0 0.0 0.0 0.0 0.0 0.0623238 7.03095 -0.993302 6.37438e-11 -1.23626e-08 -4.79966e-09 9.3941e-11 -2.13861e-08 -8.31044e-09 6.37425e-11 -1.23626e-08 -4.79965e-09 -7.73091 5.47488 -0.417314 6.37459e-11 -1.23626e-08 -4.79966e-09 -2.90554 0.965183 -0.102902 6.37392e-11 -1.23626e-08 -4.79967e-09 -10.2786 0.731801 -0.0259123 6.37484e-11 -1.23626e-08 -4.79967e-09 -2.22167 -0.733487 0.20892 -2.03217e-16 0.0 -3.88251e-19 20.4033 5.97028 18.0717 0.203093 15.3624 1.92936 -2.35581 -10.4756 -9.00743 2.03217e-16 0.0 3.88251e-19 38.5394 -40.5652 15.8991 -0.0044419 22.911 -2.05491 -3.08532 -29.5848 -10.485
-67.09059 81.2701 -14.66623 -152.598 -49.2771 172.962 15.6022 2.38763 16.5391 -5.64389 -19.7653 3.75715 7.07083 0.389995 3.15853 2.87639 19.3267 1.06345 -0.0 0.0 0.0 -0.0 0.0 0.0 0.0 0.0 0.0 0.0 0.0 0.0 0.0 0.0 0.0 -0.0522041 -6.72055 -0.948535 1.17029e-09 -3.18602e-09 7.27635e-09 1.97663e-09 -5.55193e-09 1.25786e-08 1.17029e-09 -3.18602e-09 7.27633e-09 7.73091 5.47488 0.417314 1.17028e-09 -3.18602e-09 7.27636e-09 2.90554 0.965183 0.102902 1.17029e-09 -3.18602e-09 7.27635e-09 10.2786 0.731801 0.0259123 1.17028e-09 -3.18602e-09 7.27635e-09 2.22167 -0.733487 -0.20892 0.0 0.0 0.0 0.0 0.0 0.0 0.0 0.0 0.0 0.0534874 6.54708 -0.924254 -7.93584e-10 -1.61642e-08 -6.34972e-09 -1.39252e-09 -2.7958e-08 -1.09893e-08 -7.93588e-10 -1.61642e-08 -6.3497e-09 -7.73091 5.47488 -0.417314 -7.93582e-10 -1.61642e-08 -6.34972e-09 -2.90554 0.965183 -0.102902 -7.93589e-10 -1.61642e-08 -6.34972e-09 -10.2786 0.731801 -0.0259123 -7.93579e-10 -1.61642e-08 -6.34973e-09 -2.22167 -0.733487 0.20892 -2.03217e-16 0.0 -3.88251e-19 20.6862 4.90904 20.7122 0.228499 14.9052 2.06396 -3.40334 -13.9911 -13.059 2.03217e-16 0.0 3.88251e-19 38.1572 -42.5493 14.3822 -0.00864221 23.2939 -2.13777 -0.901653 -29.6353 -6.58012
